<svg viewBox="0 0 200 200" xmlns="http://www.w3.org/2000/svg">
  <defs>
    <!-- Gradient definitions for depth -->
    <linearGradient id="blueGrad" x1="0%" y1="0%" x2="100%" y2="100%">
      <stop offset="0%" style="stop-color:#E3F2FD;stop-opacity:1" />
      <stop offset="100%" style="stop-color:#1E3A8A;stop-opacity:0.8" />
    </linearGradient>
    
    <linearGradient id="greenGrad" x1="0%" y1="0%" x2="100%" y2="100%">
      <stop offset="0%" style="stop-color:#E8F5E8;stop-opacity:1" />
      <stop offset="100%" style="stop-color:#166534;stop-opacity:0.8" />
    </linearGradient>
    
    <linearGradient id="yellowGrad" x1="0%" y1="0%" x2="100%" y2="100%">
      <stop offset="0%" style="stop-color:#FFF9C4;stop-opacity:1" />
      <stop offset="100%" style="stop-color:#CA8A04;stop-opacity:0.8" />
    </linearGradient>
    
    <linearGradient id="orangeGrad" x1="0%" y1="0%" x2="100%" y2="100%">
      <stop offset="0%" style="stop-color:#FFE0B2;stop-opacity:1" />
      <stop offset="100%" style="stop-color:#C2410C;stop-opacity:0.8" />
    </linearGradient>
    
    <linearGradient id="purpleGrad" x1="0%" y1="0%" x2="100%" y2="100%">
      <stop offset="0%" style="stop-color:#F3E5F5;stop-opacity:1" />
      <stop offset="100%" style="stop-color:#7C3AED;stop-opacity:0.8" />
    </linearGradient>
    
    <linearGradient id="pinkGrad" x1="0%" y1="0%" x2="100%" y2="100%">
      <stop offset="0%" style="stop-color:#FCE4EC;stop-opacity:1" />
      <stop offset="100%" style="stop-color:#BE185D;stop-opacity:0.8" />
    </linearGradient>
    
    <linearGradient id="tealGrad" x1="0%" y1="0%" x2="100%" y2="100%">
      <stop offset="0%" style="stop-color:#E0F2F1;stop-opacity:1" />
      <stop offset="100%" style="stop-color:#0F766E;stop-opacity:0.8" />
    </linearGradient>
    
    <linearGradient id="grayGrad" x1="0%" y1="0%" x2="100%" y2="100%">
      <stop offset="0%" style="stop-color:#F5F5F5;stop-opacity:1" />
      <stop offset="100%" style="stop-color:#374151;stop-opacity:0.8" />
    </linearGradient>
    
    <!-- Shadow filter -->
    <filter id="shadow" x="-20%" y="-20%" width="140%" height="140%">
      <feDropShadow dx="2" dy="2" stdDeviation="2" flood-opacity="0.2"/>
    </filter>
    
    <!-- Glow filter -->
    <filter id="glow" x="-20%" y="-20%" width="140%" height="140%">
      <feGaussianBlur stdDeviation="1" result="coloredBlur"/>
      <feMerge> 
        <feMergeNode in="coloredBlur"/>
        <feMergeNode in="SourceGraphic"/>
      </feMerge>
    </filter>
  </defs>
  
  
  <!-- Main design: Stylized text document with highlighted patterns -->
  <g filter="url(#shadow)">
    <!-- Document base -->
    <rect x="50" y="30" width="100" height="110" rx="8" ry="8" fill="#ffffff" stroke="#e0e0e0" stroke-width="2"/>
    
    <!-- Document header lines (representing code/text) -->
    <rect x="60" y="45" width="80" height="3" rx="1.5" fill="#e0e0e0"/>
    <rect x="60" y="52" width="60" height="3" rx="1.5" fill="#e0e0e0"/>
    
    <!-- Highlighted patterns - arranged aesthetically -->
    <!-- Line 1: Blue and Green highlights -->
    <rect x="60" y="65" width="25" height="8" rx="2" fill="url(#blueGrad)" stroke="#2196F3" stroke-width="0.5" filter="url(#glow)"/>
    <rect x="90" y="65" width="15" height="8" rx="2" fill="#e0e0e0"/>
    <rect x="110" y="65" width="20" height="8" rx="2" fill="url(#greenGrad)" stroke="#4CAF50" stroke-width="0.5" filter="url(#glow)"/>
    
    <!-- Line 2: Yellow and Orange highlights -->
    <rect x="60" y="78" width="15" height="8" rx="2" fill="#e0e0e0"/>
    <rect x="80" y="78" width="30" height="8" rx="2" fill="url(#yellowGrad)" stroke="#FFC107" stroke-width="0.5" filter="url(#glow)"/>
    <rect x="115" y="78" width="15" height="8" rx="2" fill="url(#orangeGrad)" stroke="#FF9800" stroke-width="0.5" filter="url(#glow)"/>
    
    <!-- Line 3: Purple and Pink highlights -->
    <rect x="60" y="91" width="20" height="8" rx="2" fill="url(#purpleGrad)" stroke="#9C27B0" stroke-width="0.5" filter="url(#glow)"/>
    <rect x="85" y="91" width="10" height="8" rx="2" fill="#e0e0e0"/>
    <rect x="100" y="91" width="25" height="8" rx="2" fill="url(#pinkGrad)" stroke="#E91E63" stroke-width="0.5" filter="url(#glow)"/>
    
    <!-- Line 4: Teal and Gray highlights -->
    <rect x="60" y="104" width="35" height="8" rx="2" fill="url(#tealGrad)" stroke="#009688" stroke-width="0.5" filter="url(#glow)"/>
    <rect x="100" y="104" width="18" height="8" rx="2" fill="url(#grayGrad)" stroke="#757575" stroke-width="0.5" filter="url(#glow)"/>
    
    <!-- Additional plain text lines -->
    <rect x="60" y="117" width="70" height="3" rx="1.5" fill="#e0e0e0"/>
    <rect x="60" y="124" width="45" height="3" rx="1.5" fill="#e0e0e0"/>
  </g>
  

  
 
</svg>